<?xml version="1.0" encoding="utf-8"?>
<!-- Generator: Adobe Illustrator 15.0.0, SVG Export Plug-In . SVG Version: 6.00 Build 0)  -->
<!DOCTYPE svg PUBLIC "-//W3C//DTD SVG 1.1//EN" "http://www.w3.org/Graphics/SVG/1.1/DTD/svg11.dtd">
<svg version="1.1" id="Layer_1" xmlns="http://www.w3.org/2000/svg" xmlns:xlink="http://www.w3.org/1999/xlink" x="0px" y="0px"
	 width="781px" height="291px" viewBox="0 0 781 291" enable-background="new 0 0 781 291" xml:space="preserve">
<rect x="13.818" y="13.704" fill="none" stroke="#820C9B" stroke-width="27" stroke-miterlimit="10" width="753.624" height="263.769"/>
<line fill="none" stroke="#820C9B" stroke-width="7" stroke-miterlimit="10" x1="729.098" y1="161.53" x2="52.162" y2="161.53"/>
<g>
	<path fill="#FFFFFF" d="M123.111,119.607c-0.914,2.126-2.167,3.986-3.762,5.581c-1.595,1.595-3.463,2.849-5.605,3.762
		c-2.143,0.914-4.427,1.37-6.851,1.37H84.271V58.869h22.622c2.424,0,4.708,0.457,6.851,1.37c2.143,0.914,4.011,2.167,5.605,3.762
		c1.594,1.594,2.848,3.463,3.762,5.605c0.913,2.142,1.37,4.427,1.37,6.851v0.697c0,1.694-0.224,3.313-0.672,4.858
		c-0.449,1.544-1.088,2.981-1.918,4.31c-0.831,1.329-1.811,2.533-2.94,3.612c-1.129,1.08-2.392,1.985-3.787,2.715
		c1.395,0.731,2.657,1.637,3.787,2.716c1.129,1.08,2.109,2.292,2.94,3.637c0.83,1.345,1.47,2.79,1.918,4.335
		c0.448,1.544,0.672,3.164,0.672,4.858v4.584C124.481,115.207,124.024,117.482,123.111,119.607z M118.054,76.458
		c0-1.595-0.299-3.081-0.897-4.459c-0.598-1.378-1.42-2.591-2.466-3.638c-1.046-1.047-2.259-1.868-3.638-2.466
		c-1.378-0.598-2.865-0.897-4.459-0.897H90.699v24.614h15.895c1.595,0,3.081-0.299,4.459-0.896c1.378-0.598,2.591-1.42,3.638-2.467
		c1.046-1.046,1.868-2.258,2.466-3.637c0.598-1.378,0.897-2.865,0.897-4.459V76.458z M118.054,107.151
		c0-1.594-0.299-3.081-0.897-4.459c-0.598-1.378-1.42-2.583-2.466-3.612c-1.046-1.029-2.259-1.844-3.638-2.441
		c-1.378-0.598-2.865-0.897-4.459-0.897H90.699v28.451h15.895c1.595,0,3.081-0.299,4.459-0.897c1.378-0.598,2.591-1.412,3.638-2.441
		c1.046-1.029,1.868-2.234,2.466-3.613c0.598-1.378,0.897-2.865,0.897-4.459V107.151z"/>
	<path fill="#FFFFFF" d="M175.579,119.607c-0.914,2.126-2.167,3.986-3.762,5.581c-1.595,1.595-3.463,2.849-5.605,3.762
		c-2.143,0.914-4.427,1.37-6.851,1.37h-22.622V58.869h22.622c2.424,0,4.708,0.457,6.851,1.37c2.143,0.914,4.011,2.167,5.605,3.762
		c1.594,1.594,2.848,3.463,3.762,5.605c0.913,2.142,1.37,4.427,1.37,6.851v36.323C176.949,115.207,176.492,117.482,175.579,119.607z
		 M170.521,76.458c0-1.595-0.299-3.081-0.897-4.459s-1.42-2.591-2.466-3.638c-1.046-1.047-2.259-1.868-3.638-2.466
		c-1.378-0.598-2.865-0.897-4.459-0.897h-15.895v59.194h15.895c1.595,0,3.081-0.299,4.459-0.897
		c1.378-0.598,2.591-1.412,3.638-2.441c1.046-1.029,1.868-2.234,2.466-3.613c0.598-1.378,0.897-2.865,0.897-4.459V76.458z"/>
	<path fill="#FFFFFF" d="M215.714,130.32V58.869h6.428v71.451H215.714z"/>
	<path fill="#FFFFFF" d="M275.306,130.32L245.51,78.301l-0.598-3.089v55.108h-6.428V58.869h3.338l29.796,52.069l0.648,3.039V58.869
		h6.427v71.451H275.306z"/>
	<path fill="#FFFFFF" d="M312.377,64.998v65.323h-6.428V64.998h-17.041V58.87h40.509v6.128H312.377z"/>
	<path fill="#FFFFFF" d="M339.632,130.32V58.869h40.21v6.128H346.06v26.558h27.354v6.129H346.06v26.508h33.782v6.128H339.632z"/>
	<path fill="#FFFFFF" d="M425.683,130.32L406.3,99.827h-8.819v30.494h-6.428V58.869h22.672c2.424,0,4.699,0.457,6.825,1.37
		c2.126,0.914,3.986,2.167,5.581,3.762c1.595,1.594,2.848,3.463,3.762,5.605c0.913,2.142,1.37,4.427,1.37,6.851v5.78
		c0,2.425-0.457,4.708-1.37,6.851c-0.914,2.143-2.167,4.011-3.762,5.605c-1.595,1.594-3.455,2.849-5.581,3.762
		c-2.126,0.914-4.401,1.371-6.825,1.371l19.383,30.494H425.683z M424.835,76.458c0-1.595-0.299-3.081-0.896-4.459
		c-0.599-1.378-1.412-2.591-2.441-3.638c-1.03-1.046-2.234-1.868-3.612-2.466c-1.379-0.598-2.864-0.897-4.46-0.897H397.48v28.7
		h15.943c1.596,0,3.081-0.299,4.46-0.897c1.378-0.598,2.582-1.42,3.612-2.466c1.029-1.046,1.844-2.258,2.441-3.637
		c0.598-1.378,0.896-2.865,0.896-4.459v-5.781H424.835z"/>
	<path fill="#FFFFFF" d="M472.171,113.678H449.55l-4.685,16.642h-6.678l20.929-71.451h3.388l21.027,71.451h-6.627L472.171,113.678z
		 M451.293,107.55h19.184l-9.417-32.936l-0.198-2.641l-0.199,2.641L451.293,107.55z"/>
	<path fill="#FFFFFF" d="M530.492,120.604c-0.914,2.126-2.167,3.986-3.762,5.581c-1.596,1.595-3.455,2.849-5.581,3.762
		c-2.126,0.913-4.401,1.37-6.826,1.37h-5.082c-2.425,0-4.709-0.457-6.852-1.37c-2.143-0.914-4.012-2.167-5.605-3.762
		c-1.594-1.594-2.85-3.454-3.763-5.581c-0.913-2.125-1.369-4.401-1.369-6.826V75.412c0-2.424,0.456-4.7,1.369-6.826
		c0.913-2.125,2.169-3.986,3.763-5.581c1.595-1.595,3.464-2.848,5.605-3.762c2.143-0.913,4.427-1.37,6.852-1.37h5.082
		c2.425,0,4.7,0.457,6.826,1.37c2.126,0.914,3.985,2.167,5.581,3.762c1.595,1.594,2.848,3.455,3.762,5.581
		c0.913,2.126,1.37,4.402,1.37,6.826v2.89l-6.429,0.997v-3.886c0-1.595-0.299-3.081-0.896-4.459
		c-0.598-1.378-1.412-2.583-2.441-3.612c-1.029-1.029-2.233-1.844-3.611-2.442c-1.379-0.598-2.865-0.896-4.46-0.896h-4.484
		c-1.594,0-3.081,0.299-4.459,0.896c-1.379,0.598-2.591,1.413-3.638,2.442c-1.046,1.03-1.868,2.234-2.468,3.612
		c-0.598,1.379-0.896,2.865-0.896,4.459v38.366c0,1.595,0.299,3.082,0.896,4.459c0.6,1.379,1.422,2.591,2.468,3.637
		c1.047,1.046,2.259,1.869,3.638,2.467c1.378,0.598,2.865,0.896,4.459,0.896h4.484c1.595,0,3.081-0.299,4.46-0.896
		c1.378-0.598,2.582-1.42,3.611-2.467c1.029-1.046,1.845-2.258,2.441-3.637c0.598-1.378,0.896-2.865,0.896-4.459v-3.886l6.429,1.046
		v2.84C531.862,116.203,531.405,118.479,530.492,120.604z"/>
	<path fill="#FFFFFF" d="M563.502,64.998v65.323h-6.427V64.998h-17.041V58.87h40.509v6.128H563.502z"/>
	<path fill="#FFFFFF" d="M590.758,130.32V58.869h6.428v71.451H590.758z"/>
	<path fill="#FFFFFF" d="M628.825,114.625l0.199,2.641l0.198-2.641l15.846-55.756h6.627l-21.027,71.451h-3.388l-20.929-71.451h6.678
		L628.825,114.625z"/>
	<path fill="#FFFFFF" d="M660.864,130.32V58.869h40.21v6.128h-33.782v26.558h27.354v6.129h-27.354v26.508h33.782v6.128H660.864z"/>
</g>
<path fill="#FFFFFF" d="M166.319,232.951v-27.84l-0.255,1.729l-9.431,26.111h-1.926l-9.516-26.111l-0.227-1.729v27.84h-3.653V192.34
	h1.897l12.319,33.305l0.113,1.502l0.113-1.502l12.291-33.305h1.926v40.611H166.319z"/>
<path fill="#FFFFFF" d="M194.469,223.492h-12.857l-2.662,9.459h-3.795l11.895-40.611h1.926l11.951,40.611h-3.767L194.469,223.492z
	 M182.603,220.009h10.903l-5.353-18.72l-0.113-1.501l-0.113,1.501L182.603,220.009z"/>
<path fill="#FFFFFF" d="M225.225,232.951l-11.017-17.332h-5.013v17.332h-3.653V192.34h12.886c1.378,0,2.671,0.26,3.88,0.778
	c1.208,0.521,2.266,1.231,3.172,2.139s1.619,1.97,2.138,3.187c0.519,1.219,0.779,2.517,0.779,3.895v3.285
	c0,1.378-0.26,2.676-0.779,3.895c-0.52,1.217-1.232,2.279-2.138,3.187c-0.906,0.907-1.964,1.619-3.172,2.139
	c-1.208,0.519-2.502,0.778-3.88,0.778l11.017,17.332h-4.22V232.951z M224.744,202.337c0-0.905-0.17-1.751-0.51-2.535
	c-0.34-0.782-0.803-1.473-1.388-2.065c-0.585-0.596-1.27-1.063-2.053-1.402c-0.784-0.34-1.628-0.51-2.535-0.51h-9.063v16.313h9.063
	c0.906,0,1.751-0.17,2.535-0.51c0.783-0.34,1.468-0.807,2.053-1.402c0.585-0.594,1.048-1.283,1.388-2.065
	c0.34-0.784,0.51-1.629,0.51-2.535V202.337z"/>
<path fill="#FFFFFF" d="M245.106,224.029l0.113,1.502l0.113-1.502l9.006-31.689h3.767l-11.951,40.611h-1.926l-11.895-40.611h3.795
	L245.106,224.029z"/>
<path fill="#FFFFFF" d="M263.316,232.951V192.34h22.854v3.483h-19.201v15.095h15.548v3.482h-15.548v15.066h19.201v3.483
	L263.316,232.951L263.316,232.951z"/>
<path fill="#FFFFFF" d="M292.542,232.951V192.34h3.653v37.128h15.548v3.483H292.542z"/>
<path fill="#820C9B" d="M339.583,224.029l0.113,1.502l0.113-1.502l9.006-31.689h3.767l-11.951,40.611h-1.926L326.81,192.34h3.795
	L339.583,224.029z"/>
<path fill="#820C9B" d="M380.052,223.549c0,1.378-0.278,2.672-0.836,3.881c-0.557,1.207-1.303,2.266-2.236,3.172
	c-0.936,0.905-2.021,1.619-3.258,2.139c-1.236,0.519-2.544,0.777-3.922,0.777h-2.917c-1.378,0-2.686-0.26-3.923-0.777
	c-1.236-0.521-2.322-1.232-3.256-2.139c-0.936-0.906-1.681-1.965-2.238-3.172c-0.557-1.209-0.835-2.503-0.835-3.881v-1.613
	l3.653-0.596v2.209c0,0.906,0.184,1.751,0.553,2.534c0.367,0.784,0.863,1.474,1.486,2.067c0.623,0.595,1.346,1.063,2.166,1.401
	c0.822,0.341,1.686,0.511,2.592,0.511h2.549c0.906,0,1.766-0.17,2.577-0.511c0.811-0.34,1.529-0.808,2.152-1.401
	c0.623-0.596,1.118-1.283,1.487-2.067c0.367-0.783,0.552-1.628,0.552-2.534v-1.218c0-1.397-0.273-2.56-0.821-3.483
	s-1.274-1.714-2.181-2.363c-0.906-0.652-1.931-1.205-3.073-1.657c-1.142-0.453-2.317-0.906-3.525-1.359
	c-1.208-0.452-2.384-0.952-3.525-1.501c-1.143-0.548-2.167-1.232-3.073-2.053c-0.906-0.822-1.633-1.827-2.181-3.018
	c-0.548-1.189-0.821-2.651-0.821-4.39v-0.765c0-1.378,0.26-2.672,0.778-3.881c0.52-1.207,1.232-2.266,2.139-3.172
	c0.907-0.905,1.969-1.619,3.186-2.139c1.219-0.519,2.517-0.777,3.896-0.777h2.604c1.378,0,2.672,0.26,3.88,0.777
	c1.208,0.52,2.266,1.232,3.172,2.139c0.906,0.908,1.619,1.965,2.138,3.172c0.52,1.209,0.779,2.503,0.779,3.881v1.048l-3.653,0.595
	v-1.643c0-0.906-0.17-1.751-0.51-2.534c-0.34-0.784-0.803-1.469-1.388-2.054c-0.585-0.586-1.27-1.049-2.053-1.389
	c-0.784-0.34-1.629-0.51-2.535-0.51h-2.266c-0.906,0-1.751,0.17-2.535,0.51c-0.783,0.34-1.473,0.803-2.066,1.389
	c-0.596,0.585-1.063,1.27-1.402,2.054c-0.34,0.783-0.51,1.628-0.51,2.534v0.765c0,1.304,0.273,2.397,0.821,3.285
	c0.548,0.888,1.274,1.647,2.181,2.278c0.906,0.634,1.931,1.182,3.072,1.644c1.143,0.463,2.318,0.937,3.526,1.416
	c1.208,0.481,2.384,1.011,3.526,1.586c1.142,0.576,2.166,1.284,3.072,2.125c0.906,0.841,1.633,1.864,2.181,3.072
	s0.821,2.681,0.821,4.418V223.549z"/>
<path fill="#FFFFFF" d="M423.313,226.861c-0.521,1.209-1.232,2.267-2.14,3.173c-0.907,0.905-1.969,1.618-3.187,2.139
	c-1.219,0.519-2.517,0.778-3.895,0.778h-12.857V192.34h12.857c1.378,0,2.676,0.26,3.895,0.778c1.218,0.521,2.279,1.231,3.187,2.139
	s1.619,1.97,2.14,3.187c0.519,1.219,0.777,2.517,0.777,3.895v20.646C424.09,224.359,423.83,225.654,423.313,226.861z
	 M420.438,202.337c0-0.905-0.17-1.751-0.511-2.535c-0.34-0.782-0.807-1.473-1.401-2.065c-0.594-0.596-1.283-1.063-2.066-1.402
	c-0.784-0.34-1.629-0.51-2.535-0.51h-9.033v33.645h9.033c0.906,0,1.751-0.17,2.535-0.51c0.783-0.34,1.473-0.803,2.066-1.388
	c0.596-0.585,1.063-1.271,1.401-2.054c0.341-0.783,0.511-1.629,0.511-2.535V202.337z"/>
<path fill="#FFFFFF" d="M454.265,227.43c-0.519,1.207-1.23,2.266-2.138,3.172c-0.907,0.905-1.964,1.619-3.172,2.139
	c-1.208,0.519-2.502,0.777-3.88,0.777h-2.89c-1.378,0-2.676-0.26-3.895-0.777c-1.217-0.521-2.279-1.232-3.186-2.139
	c-0.907-0.908-1.619-1.965-2.14-3.172c-0.519-1.209-0.778-2.503-0.778-3.881v-21.807c0-1.379,0.261-2.672,0.778-3.881
	c0.521-1.207,1.232-2.266,2.14-3.172c0.906-0.905,1.969-1.619,3.186-2.139c1.219-0.519,2.517-0.777,3.895-0.777h2.89
	c1.378,0,2.672,0.26,3.88,0.777c1.208,0.52,2.266,1.232,3.172,2.139c0.906,0.908,1.619,1.965,2.138,3.172
	c0.521,1.209,0.779,2.502,0.779,3.881v1.643l-3.653,0.566v-2.209c0-0.906-0.17-1.751-0.51-2.534
	c-0.34-0.784-0.803-1.469-1.388-2.054c-0.585-0.586-1.271-1.049-2.054-1.389s-1.629-0.51-2.534-0.51h-2.55
	c-0.905,0-1.75,0.17-2.534,0.51c-0.783,0.34-1.474,0.803-2.066,1.389c-0.596,0.585-1.063,1.27-1.402,2.054
	c-0.34,0.783-0.51,1.628-0.51,2.534v21.807c0,0.906,0.17,1.751,0.51,2.534c0.341,0.784,0.808,1.474,1.402,2.067
	c0.594,0.595,1.283,1.063,2.066,1.401c0.784,0.341,1.629,0.511,2.534,0.511h2.55c0.905,0,1.751-0.17,2.534-0.511
	c0.783-0.34,1.469-0.808,2.054-1.401c0.585-0.596,1.048-1.283,1.388-2.067c0.34-0.783,0.51-1.628,0.51-2.534v-2.209l3.653,0.596
	v1.613C455.044,224.927,454.784,226.221,454.265,227.43z"/>
<path fill="#FFFFFF" d="M497.991,227.43c-0.52,1.207-1.231,2.266-2.138,3.172c-0.907,0.905-1.965,1.619-3.173,2.139
	c-1.208,0.519-2.502,0.777-3.88,0.777h-2.889c-1.378,0-2.676-0.26-3.896-0.777c-1.217-0.521-2.278-1.232-3.186-2.139
	c-0.907-0.908-1.619-1.965-2.139-3.172c-0.52-1.209-0.778-2.503-0.778-3.881v-21.807c0-1.379,0.26-2.672,0.778-3.881
	c0.52-1.207,1.231-2.266,2.139-3.172c0.907-0.905,1.969-1.619,3.186-2.139c1.22-0.519,2.518-0.777,3.896-0.777h2.889
	c1.378,0,2.672,0.26,3.88,0.777c1.208,0.52,2.267,1.232,3.173,2.139c0.905,0.908,1.618,1.965,2.138,3.172
	c0.52,1.209,0.778,2.502,0.778,3.881v1.643l-3.652,0.566v-2.209c0-0.906-0.17-1.751-0.51-2.534
	c-0.341-0.784-0.804-1.469-1.389-2.054c-0.585-0.586-1.27-1.049-2.053-1.389c-0.784-0.34-1.629-0.51-2.535-0.51h-2.549
	c-0.906,0-1.751,0.17-2.535,0.51c-0.783,0.34-1.473,0.803-2.066,1.389c-0.596,0.585-1.063,1.27-1.401,2.054
	c-0.34,0.783-0.51,1.628-0.51,2.534v21.807c0,0.906,0.17,1.751,0.51,2.534c0.34,0.784,0.807,1.474,1.401,2.067
	c0.595,0.595,1.283,1.063,2.066,1.401c0.784,0.341,1.629,0.511,2.535,0.511h2.549c0.906,0,1.751-0.17,2.535-0.511
	c0.783-0.34,1.468-0.808,2.053-1.401c0.585-0.596,1.048-1.283,1.389-2.067c0.34-0.783,0.51-1.628,0.51-2.534v-2.209l3.652,0.596
	v1.613C498.771,224.927,498.511,226.221,497.991,227.43z"/>
<path fill="#FFFFFF" d="M528.38,227.43c-0.52,1.207-1.231,2.266-2.139,3.172c-0.907,0.905-1.964,1.619-3.172,2.139
	c-1.208,0.519-2.502,0.777-3.88,0.777h-2.89c-1.378,0-2.677-0.26-3.894-0.777c-1.219-0.521-2.28-1.232-3.188-2.139
	c-0.906-0.908-1.619-1.965-2.138-3.172c-0.521-1.209-0.779-2.503-0.779-3.881v-21.807c0-1.379,0.261-2.672,0.779-3.881
	c0.519-1.207,1.231-2.266,2.138-3.172c0.907-0.905,1.969-1.619,3.188-2.139c1.217-0.519,2.516-0.777,3.894-0.777h2.89
	c1.378,0,2.672,0.26,3.88,0.777c1.208,0.52,2.266,1.232,3.172,2.139c0.906,0.908,1.619,1.965,2.139,3.172
	c0.52,1.209,0.778,2.502,0.778,3.881v21.807C529.158,224.927,528.898,226.221,528.38,227.43z M525.505,201.742
	c0-0.906-0.17-1.751-0.51-2.534c-0.34-0.784-0.803-1.469-1.388-2.054c-0.586-0.586-1.271-1.049-2.055-1.389
	c-0.783-0.34-1.628-0.51-2.534-0.51h-2.549c-0.905,0-1.751,0.17-2.534,0.51s-1.473,0.803-2.067,1.389
	c-0.594,0.585-1.063,1.27-1.401,2.054c-0.34,0.783-0.51,1.628-0.51,2.534v21.807c0,0.906,0.17,1.751,0.51,2.534
	c0.34,0.784,0.809,1.474,1.401,2.067c0.596,0.595,1.284,1.063,2.067,1.401c0.783,0.341,1.629,0.511,2.534,0.511h2.549
	c0.906,0,1.751-0.17,2.534-0.511c0.784-0.34,1.469-0.808,2.055-1.401c0.585-0.596,1.048-1.283,1.388-2.067
	c0.34-0.783,0.51-1.628,0.51-2.534V201.742z"/>
<path fill="#FFFFFF" d="M562.888,232.951v-27.84l-0.255,1.729l-9.431,26.111h-1.926l-9.517-26.111l-0.227-1.729v27.84h-3.653V192.34
	h1.897l12.318,33.305l0.113,1.502l0.113-1.502l12.291-33.305h1.926v40.611H562.888z"/>
<path fill="#FFFFFF" d="M575.802,232.951V192.34h3.653v40.611H575.802z"/>
<path fill="#FFFFFF" d="M610.226,227.43c-0.52,1.207-1.231,2.266-2.139,3.172c-0.907,0.905-1.964,1.619-3.172,2.139
	c-1.208,0.519-2.502,0.777-3.88,0.777h-2.889c-1.379,0-2.678-0.26-3.895-0.777c-1.219-0.521-2.28-1.232-3.187-2.139
	c-0.907-0.908-1.619-1.965-2.139-3.172c-0.52-1.209-0.778-2.503-0.778-3.881v-21.807c0-1.379,0.26-2.672,0.778-3.881
	c0.52-1.207,1.231-2.266,2.139-3.172c0.906-0.905,1.968-1.619,3.187-2.139c1.217-0.519,2.516-0.777,3.895-0.777h2.889
	c1.378,0,2.672,0.26,3.88,0.777c1.208,0.52,2.266,1.232,3.172,2.139c0.906,0.908,1.619,1.965,2.139,3.172
	c0.52,1.209,0.778,2.502,0.778,3.881v1.643l-3.653,0.566v-2.209c0-0.906-0.17-1.751-0.51-2.534c-0.34-0.784-0.803-1.469-1.388-2.054
	c-0.585-0.586-1.271-1.049-2.054-1.389s-1.628-0.51-2.534-0.51h-2.549c-0.906,0-1.751,0.17-2.534,0.51
	c-0.784,0.34-1.474,0.803-2.068,1.389c-0.594,0.585-1.062,1.27-1.401,2.054c-0.34,0.783-0.51,1.628-0.51,2.534v21.807
	c0,0.906,0.17,1.751,0.51,2.534c0.341,0.784,0.809,1.474,1.401,2.067c0.596,0.595,1.284,1.063,2.068,1.401
	c0.783,0.341,1.628,0.511,2.534,0.511h2.549c0.906,0,1.751-0.17,2.534-0.511c0.783-0.34,1.469-0.808,2.054-1.401
	c0.585-0.596,1.048-1.283,1.388-2.067c0.34-0.783,0.51-1.628,0.51-2.534v-2.209l3.653,0.596v1.613
	C611.004,224.927,610.744,226.221,610.226,227.43z"/>
<path fill="#FFFFFF" d="M641.392,223.549c0,1.378-0.277,2.672-0.836,3.881c-0.557,1.207-1.303,2.266-2.235,3.172
	c-0.937,0.905-2.021,1.619-3.258,2.139c-1.236,0.519-2.545,0.777-3.923,0.777h-2.917c-1.378,0-2.686-0.26-3.923-0.777
	c-1.235-0.521-2.321-1.232-3.256-2.139c-0.936-0.906-1.681-1.965-2.238-3.172c-0.557-1.209-0.835-2.503-0.835-3.881v-1.613
	l3.653-0.596v2.209c0,0.906,0.185,1.751,0.553,2.534c0.367,0.784,0.863,1.474,1.486,2.067c0.623,0.595,1.346,1.063,2.166,1.401
	c0.822,0.341,1.686,0.511,2.592,0.511h2.549c0.906,0,1.767-0.17,2.577-0.511c0.812-0.34,1.529-0.808,2.152-1.401
	c0.623-0.596,1.118-1.283,1.487-2.067c0.366-0.783,0.552-1.628,0.552-2.534v-1.218c0-1.397-0.273-2.56-0.821-3.483
	s-1.273-1.714-2.181-2.363c-0.906-0.652-1.932-1.205-3.073-1.657c-1.142-0.453-2.317-0.906-3.525-1.359
	c-1.208-0.452-2.384-0.952-3.524-1.501c-1.144-0.548-2.167-1.232-3.073-2.053c-0.906-0.822-1.633-1.827-2.181-3.018
	c-0.549-1.189-0.821-2.651-0.821-4.39v-0.765c0-1.378,0.26-2.672,0.778-3.881c0.52-1.207,1.231-2.266,2.139-3.172
	c0.907-0.905,1.969-1.619,3.186-2.139c1.22-0.519,2.518-0.777,3.896-0.777h2.604c1.378,0,2.672,0.26,3.881,0.777
	c1.207,0.52,2.266,1.232,3.172,2.139c0.905,0.908,1.619,1.965,2.138,3.172c0.52,1.209,0.779,2.503,0.779,3.881v1.048l-3.653,0.595
	v-1.643c0-0.906-0.17-1.751-0.51-2.534c-0.34-0.784-0.804-1.469-1.389-2.054c-0.585-0.586-1.27-1.049-2.053-1.389
	c-0.784-0.34-1.629-0.51-2.535-0.51h-2.266c-0.906,0-1.751,0.17-2.535,0.51c-0.783,0.34-1.473,0.803-2.065,1.389
	c-0.597,0.585-1.063,1.27-1.402,2.054c-0.34,0.783-0.51,1.628-0.51,2.534v0.765c0,1.304,0.272,2.397,0.82,3.285
	s1.274,1.647,2.182,2.278c0.905,0.634,1.931,1.182,3.071,1.644c1.144,0.463,2.318,0.937,3.526,1.416
	c1.208,0.481,2.384,1.011,3.526,1.586c1.142,0.576,2.166,1.284,3.072,2.125c0.905,0.841,1.633,1.864,2.181,3.072
	s0.821,2.681,0.821,4.418L641.392,223.549L641.392,223.549z"/>
</svg>
